<svg xmlns="http://www.w3.org/2000/svg" viewBox="0 0 24 24" fill="#1B5E20">
  <path d="M12 20L12.76 17C9.5 16.79 6.59 15.4 5.75 13.58C5.66 14.06 5.61 14.56 5.61 15.07C5.61 17.73 8.47 20 12 20M14 11C14.55 11 15 10.55 15 10S14.55 9 14 9 13 9.45 13 10 13.45 11 14 11M12 4C8.47 4 5.61 6.27 5.61 8.93C5.61 9.44 5.66 9.94 5.75 10.42C6.59 8.6 9.5 7.21 12.76 7L12 4M21.8 12C21.8 12 20.68 9.59 19 8.45C19.61 9.38 20 10.41 20 11.5C20 12.59 19.61 13.62 19 14.55C20.68 13.41 21.8 12 21.8 12M3 12C3 12 4.12 14.41 5.8 15.55C5.19 14.62 4.8 13.59 4.8 12.5C4.8 11.41 5.19 10.38 5.8 9.45C4.12 10.59 3 12 3 12Z"/>
</svg>
